<?xml version="1.0" encoding="utf-8"?>
<!-- Generator: Adobe Illustrator 19.1.0, SVG Export Plug-In . SVG Version: 6.00 Build 0)  -->
<svg version="1.1" id="Layer_1" xmlns="http://www.w3.org/2000/svg" xmlns:xlink="http://www.w3.org/1999/xlink" x="0px" y="0px"
	 viewBox="0 0 80 70.2" style="enable-background:new 0 0 80 70.2;" xml:space="preserve">
<style type="text/css">
	.st0{fill:#231F20;}
</style>
<path class="st0" d="M78.3,61.3L66.7,41.1c-2.8-4.8-7.2-12.6-10-17.3L45,3.6c-2.8-4.8-7.2-4.8-10,0L23.4,23.8
	c-2.8,4.8-7.2,12.6-10,17.3L1.7,61.3c-2.8,4.8-0.5,8.7,5,8.7H30c5.5,0,14.5,0,20,0h23.3C78.8,69.9,81.1,66,78.3,61.3z M43.4,61.1
	c-1,0.8-2.1,1.3-3.3,1.3c-1.3,0-2.4-0.4-3.4-1.3c-1-0.8-1.4-2-1.4-3.5c0-1.3,0.5-2.4,1.4-3.3c0.9-0.9,2-1.4,3.4-1.4s2.5,0.5,3.4,1.4
	c0.9,0.9,1.4,2,1.4,3.3C44.8,59.1,44.4,60.3,43.4,61.1z M44.6,25.9l-1.4,15.6c-0.1,1.9-0.5,3.3-1,4.3c-0.5,1-1.3,1.5-2.4,1.5
	c-1.1,0-1.9-0.5-2.4-1.4c-0.4-1-0.8-2.4-1-4.4l-1-15.2c-0.2-3-0.3-5.1-0.3-6.4c0-1.8,0.5-3.1,1.4-4.1c0.9-1,2.1-1.5,3.6-1.5
	c1.8,0,3,0.6,3.7,1.9c0.6,1.3,0.9,3.1,0.9,5.4C44.8,23,44.8,24.5,44.6,25.9z"/>
</svg>
